SplineFontDB: 3.2
FontName: Pixel-Maz
FullName: Pixel Maz Regular
FamilyName: Pixel Maz
Weight: Book
Copyright: Copyright allthatmaz 2008
Version: 1.0
ItalicAngle: 0
UnderlinePosition: 77
UnderlineWidth: 51
Ascent: 416
Descent: 96
InvalidEm: 0
sfntRevision: 0x00010000
LayerCount: 2
Layer: 0 1 "Back" 1
Layer: 1 1 "Fore" 0
XUID: [1021 316 2131805191 126853]
StyleMap: 0x0040
FSType: 4
OS2Version: 4
OS2_WeightWidthSlopeOnly: 0
OS2_UseTypoMetrics: 0
CreationTime: 1223643061
ModificationTime: 1697229157
PfmFamily: 81
TTFWeight: 400
TTFWidth: 5
LineGap: 0
VLineGap: 0
Panose: 0 0 0 0 0 0 0 0 0 0
OS2TypoAscent: 416
OS2TypoAOffset: 0
OS2TypoDescent: -96
OS2TypoDOffset: 0
OS2TypoLinegap: 0
OS2WinAscent: 416
OS2WinAOffset: 0
OS2WinDescent: 96
OS2WinDOffset: 0
HheadAscent: 416
HheadAOffset: 0
HheadDescent: -96
HheadDOffset: 0
OS2SubXSize: 512
OS2SubYSize: 512
OS2SubXOff: 0
OS2SubYOff: -96
OS2SupXSize: 512
OS2SupYSize: 512
OS2SupXOff: 0
OS2SupYOff: 512
OS2StrikeYSize: 51
OS2StrikeYPos: 204
OS2CapHeight: 320
OS2XHeight: 256
OS2Vendor: 'FSTR'
OS2CodePages: 00000001.00000000
OS2UnicodeRanges: 80000003.00000000.00000000.00000000
DEI: 91125
TtTable: prep
PUSHW_1
 20
CALL
SVTCA[x-axis]
PUSHW_3
 2
 23
 22
CALL
SVTCA[x-axis]
PUSHW_8
 24
 44
 36
 28
 20
 12
 0
 28
CALL
SVTCA[y-axis]
PUSHW_8
 23
 44
 36
 28
 20
 12
 0
 28
CALL
SVTCA[y-axis]
PUSHW_3
 25
 4
 27
CALL
PUSHW_1
 22
DUP
RCVT
RDTG
ROUND[Black]
RTG
WCVTP
PUSHW_1
 10
CALL
SVTCA[x-axis]
PUSHW_3
 2
 12
 12
CALL
SVTCA[x-axis]
PUSHW_8
 13
 44
 36
 28
 20
 12
 0
 18
CALL
SVTCA[y-axis]
PUSHW_8
 12
 44
 36
 28
 20
 12
 0
 18
CALL
SVTCA[y-axis]
PUSHW_3
 14
 4
 17
CALL
PUSHW_1
 11
DUP
RCVT
RDTG
ROUND[Black]
RTG
WCVTP
PUSHW_1
 0
CALL
SVTCA[y-axis]
PUSHW_3
 1
 1
 2
CALL
SVTCA[x-axis]
PUSHW_3
 2
 1
 2
CALL
SVTCA[x-axis]
PUSHW_8
 2
 44
 36
 28
 20
 12
 0
 8
CALL
SVTCA[y-axis]
PUSHW_8
 1
 44
 36
 28
 20
 12
 0
 8
CALL
SVTCA[y-axis]
PUSHW_3
 3
 4
 7
CALL
PUSHW_1
 0
DUP
RCVT
RDTG
ROUND[Black]
RTG
WCVTP
EndTTInstrs
TtTable: fpgm
PUSHW_1
 0
FDEF

StartChar: .notdef
Encoding: 65536 -1 0
Width: 576
Flags: W
LayerCount: 2
Fore
SplineSet
0 0 m 1,0,-1
 0 512 l 1,1,-1
 512 512 l 1,2,-1
 512 0 l 1,3,-1
 0 0 l 1,0,-1
EndSplineSet
EndChar

StartChar: uni001E
Encoding: 30 30 3
Width: 320
GlyphClass: 2
Flags: W
LayerCount: 2
Fore
SplineSet
0 192 m 1,0,-1
 32 224 l 1,1,-1
 160 224 l 1,2,-1
 192 192 l 1,3,-1
 192 64 l 1,4,-1
 160 32 l 1,5,-1
 32 32 l 1,6,-1
 0 64 l 1,7,-1
 0 192 l 1,0,-1
EndSplineSet
EndChar

StartChar: uni001F
Encoding: 31 31 4
Width: 256
GlyphClass: 2
Flags: W
LayerCount: 2
Fore
SplineSet
24 112 m 1,0,-1
 0 136 l 1,1,-1
 0 184 l 1,2,-1
 24 208 l 1,3,-1
 72 208 l 1,4,-1
 96 184 l 1,5,-1
 96 136 l 1,6,-1
 72 112 l 1,7,-1
 24 112 l 1,0,-1
EndSplineSet
EndChar

StartChar: exclam
Encoding: 33 33 6
Width: 128
GlyphClass: 2
Flags: W
LayerCount: 2
Fore
SplineSet
0 128 m 1,0,-1
 0 384 l 1,1,-1
 64 384 l 1,2,-1
 64 128 l 1,3,-1
 0 128 l 1,0,-1
0 0 m 1,4,-1
 0 64 l 1,5,-1
 64 64 l 1,6,-1
 64 0 l 1,7,-1
 0 0 l 1,4,-1
EndSplineSet
EndChar

StartChar: quotedbl
Encoding: 34 34 7
Width: 256
GlyphClass: 2
Flags: W
LayerCount: 2
Fore
SplineSet
0 256 m 1,0,-1
 0 384 l 1,1,-1
 64 384 l 1,2,-1
 64 256 l 1,3,-1
 0 256 l 1,0,-1
128 256 m 1,4,-1
 128 384 l 1,5,-1
 192 384 l 1,6,-1
 192 256 l 1,7,-1
 128 256 l 1,4,-1
EndSplineSet
EndChar

StartChar: numbersign
Encoding: 35 35 8
Width: 384
GlyphClass: 2
Flags: W
LayerCount: 2
Fore
SplineSet
64 0 m 1,0,-1
 64 64 l 1,1,-1
 0 64 l 1,2,-1
 0 128 l 1,3,-1
 64 128 l 1,4,-1
 64 192 l 1,5,-1
 0 192 l 1,6,-1
 0 256 l 1,7,-1
 64 256 l 1,8,-1
 64 320 l 1,9,-1
 128 320 l 1,10,-1
 128 256 l 1,11,-1
 192 256 l 1,12,-1
 192 320 l 1,13,-1
 256 320 l 1,14,-1
 256 256 l 1,15,-1
 320 256 l 1,16,-1
 320 192 l 1,17,-1
 256 192 l 1,18,-1
 256 128 l 1,19,-1
 320 128 l 1,20,-1
 320 64 l 1,21,-1
 256 64 l 1,22,-1
 256 0 l 1,23,-1
 192 0 l 1,24,-1
 192 64 l 1,25,-1
 128 64 l 1,26,-1
 128 0 l 1,27,-1
 64 0 l 1,0,-1
192 128 m 1,28,-1
 192 192 l 1,29,-1
 128 192 l 1,30,-1
 128 128 l 1,31,-1
 192 128 l 1,28,-1
EndSplineSet
EndChar

StartChar: dollar
Encoding: 36 36 9
Width: 384
GlyphClass: 2
Flags: W
LayerCount: 2
Fore
SplineSet
256 128 m 1,0,-1
 256 64 l 1,1,-1
 192 64 l 1,2,-1
 192 0 l 1,3,-1
 128 0 l 1,4,-1
 128 64 l 1,5,-1
 0 64 l 1,6,-1
 0 128 l 1,7,-1
 128 128 l 1,8,-1
 128 192 l 1,9,-1
 64 192 l 1,10,-1
 64 256 l 1,11,-1
 0 256 l 1,12,-1
 0 320 l 1,13,-1
 64 320 l 1,14,-1
 64 256 l 1,15,-1
 128 256 l 1,16,-1
 128 320 l 1,17,-1
 64 320 l 1,18,-1
 64 384 l 1,19,-1
 128 384 l 1,20,-1
 128 448 l 1,21,-1
 192 448 l 1,22,-1
 192 384 l 1,23,-1
 320 384 l 1,24,-1
 320 320 l 1,25,-1
 192 320 l 1,26,-1
 192 256 l 1,27,-1
 256 256 l 1,28,-1
 256 192 l 1,29,-1
 192 192 l 1,30,-1
 192 128 l 1,31,-1
 256 128 l 1,0,-1
256 128 m 1,32,-1
 256 192 l 1,33,-1
 320 192 l 1,34,-1
 320 128 l 1,35,-1
 256 128 l 1,32,-1
EndSplineSet
EndChar

StartChar: percent
Encoding: 37 37 10
Width: 384
GlyphClass: 2
Flags: W
LayerCount: 2
Fore
SplineSet
64 256 m 1,0,-1
 64 320 l 1,1,-1
 128 320 l 1,2,-1
 128 256 l 1,3,-1
 64 256 l 1,0,-1
256 256 m 1,4,-1
 256 320 l 1,5,-1
 320 320 l 1,6,-1
 320 256 l 1,7,-1
 256 256 l 1,4,-1
192 192 m 1,8,-1
 192 256 l 1,9,-1
 256 256 l 1,10,-1
 256 192 l 1,11,-1
 192 192 l 1,8,-1
128 128 m 1,12,-1
 128 192 l 1,13,-1
 192 192 l 1,14,-1
 192 128 l 1,15,-1
 128 128 l 1,12,-1
64 64 m 1,16,-1
 64 128 l 1,17,-1
 128 128 l 1,18,-1
 128 64 l 1,19,-1
 64 64 l 1,16,-1
0 0 m 1,20,-1
 0 64 l 1,21,-1
 64 64 l 1,22,-1
 64 0 l 1,23,-1
 0 0 l 1,20,-1
192 0 m 1,24,-1
 192 64 l 1,25,-1
 256 64 l 1,26,-1
 256 0 l 1,27,-1
 192 0 l 1,24,-1
EndSplineSet
EndChar

StartChar: ampersand
Encoding: 38 38 11
Width: 448
GlyphClass: 2
Flags: W
LayerCount: 2
Fore
SplineSet
64 320 m 1,0,-1
 64 384 l 1,1,-1
 192 384 l 1,2,-1
 192 320 l 1,3,-1
 64 320 l 1,0,-1
0 256 m 1,4,-1
 0 320 l 1,5,-1
 64 320 l 1,6,-1
 64 256 l 1,7,-1
 0 256 l 1,4,-1
192 256 m 1,8,-1
 192 320 l 1,9,-1
 256 320 l 1,10,-1
 256 256 l 1,11,-1
 192 256 l 1,8,-1
64 192 m 1,12,-1
 64 256 l 1,13,-1
 192 256 l 1,14,-1
 192 192 l 1,15,-1
 64 192 l 1,12,-1
320 192 m 1,16,-1
 320 256 l 1,17,-1
 384 256 l 1,18,-1
 384 192 l 1,19,-1
 320 192 l 1,16,-1
0 64 m 1,20,-1
 0 192 l 1,21,-1
 64 192 l 1,22,-1
 64 64 l 1,23,-1
 0 64 l 1,20,-1
192 64 m 1,24,-1
 192 192 l 1,25,-1
 320 192 l 1,26,-1
 320 128 l 1,27,-1
 256 128 l 1,28,-1
 256 64 l 1,29,-1
 192 64 l 1,24,-1
64 0 m 1,30,-1
 64 64 l 1,31,-1
 192 64 l 1,32,-1
 192 0 l 1,33,-1
 64 0 l 1,30,-1
256 0 m 1,34,-1
 256 64 l 1,35,-1
 384 64 l 1,36,-1
 384 0 l 1,37,-1
 256 0 l 1,34,-1
EndSplineSet
EndChar

StartChar: quotesingle
Encoding: 39 39 12
Width: 128
GlyphClass: 2
Flags: W
LayerCount: 2
Fore
SplineSet
0 256 m 1,0,-1
 0 384 l 1,1,-1
 64 384 l 1,2,-1
 64 256 l 1,3,-1
 0 256 l 1,0,-1
EndSplineSet
EndChar

StartChar: parenleft
Encoding: 40 40 13
Width: 192
GlyphClass: 2
Flags: W
LayerCount: 2
Fore
SplineSet
64 320 m 1,0,-1
 64 384 l 1,1,-1
 128 384 l 1,2,-1
 128 320 l 1,3,-1
 64 320 l 1,0,-1
0 64 m 1,4,-1
 0 320 l 1,5,-1
 64 320 l 1,6,-1
 64 64 l 1,7,-1
 0 64 l 1,4,-1
64 0 m 1,8,-1
 64 64 l 1,9,-1
 128 64 l 1,10,-1
 128 0 l 1,11,-1
 64 0 l 1,8,-1
EndSplineSet
EndChar

StartChar: parenright
Encoding: 41 41 14
Width: 192
GlyphClass: 2
Flags: W
LayerCount: 2
Fore
SplineSet
0 320 m 1,0,-1
 0 384 l 1,1,-1
 64 384 l 1,2,-1
 64 320 l 1,3,-1
 0 320 l 1,0,-1
64 64 m 1,4,-1
 64 320 l 1,5,-1
 128 320 l 1,6,-1
 128 64 l 1,7,-1
 64 64 l 1,4,-1
0 0 m 1,8,-1
 0 64 l 1,9,-1
 64 64 l 1,10,-1
 64 0 l 1,11,-1
 0 0 l 1,8,-1
EndSplineSet
EndChar

StartChar: asterisk
Encoding: 42 42 15
Width: 384
GlyphClass: 2
Flags: W
LayerCount: 2
Fore
SplineSet
64 64 m 1,0,-1
 64 192 l 1,1,-1
 0 192 l 1,2,-1
 0 256 l 1,3,-1
 128 256 l 1,4,-1
 128 320 l 1,5,-1
 192 320 l 1,6,-1
 192 256 l 1,7,-1
 320 256 l 1,8,-1
 320 192 l 1,9,-1
 256 192 l 1,10,-1
 256 64 l 1,11,-1
 192 64 l 1,12,-1
 192 128 l 1,13,-1
 128 128 l 1,14,-1
 128 64 l 1,15,-1
 64 64 l 1,0,-1
EndSplineSet
EndChar

StartChar: plus
Encoding: 43 43 16
Width: 384
GlyphClass: 2
Flags: W
LayerCount: 2
Fore
SplineSet
128 0 m 1,0,-1
 128 128 l 1,1,-1
 0 128 l 1,2,-1
 0 192 l 1,3,-1
 128 192 l 1,4,-1
 128 320 l 1,5,-1
 192 320 l 1,6,-1
 192 192 l 1,7,-1
 320 192 l 1,8,-1
 320 128 l 1,9,-1
 192 128 l 1,10,-1
 192 0 l 1,11,-1
 128 0 l 1,0,-1
EndSplineSet
EndChar

StartChar: comma
Encoding: 44 44 17
Width: 128
GlyphClass: 2
Flags: W
LayerCount: 2
Fore
SplineSet
-64 -64 m 1,0,-1
 0 0 l 1,1,-1
 0 64 l 1,2,-1
 64 64 l 1,3,-1
 64 0 l 1,4,-1
 0 -64 l 1,5,-1
 -64 -64 l 1,0,-1
EndSplineSet
EndChar

StartChar: hyphen
Encoding: 45 45 18
Width: 320
GlyphClass: 2
Flags: W
LayerCount: 2
Fore
SplineSet
0 128 m 1,0,-1
 0 192 l 1,1,-1
 256 192 l 1,2,-1
 256 128 l 1,3,-1
 0 128 l 1,0,-1
EndSplineSet
EndChar

StartChar: period
Encoding: 46 46 19
Width: 128
GlyphClass: 2
Flags: W
LayerCount: 2
Fore
SplineSet
0 0 m 1,0,-1
 0 64 l 1,1,-1
 64 64 l 1,2,-1
 64 0 l 1,3,-1
 0 0 l 1,0,-1
EndSplineSet
EndChar

StartChar: slash
Encoding: 47 47 20
Width: 320
GlyphClass: 2
Flags: W
LayerCount: 2
Fore
SplineSet
192 320 m 1,0,-1
 192 384 l 1,1,-1
 256 384 l 1,2,-1
 256 320 l 1,3,-1
 192 320 l 1,0,-1
128 192 m 1,4,-1
 128 320 l 1,5,-1
 192 320 l 1,6,-1
 192 192 l 1,7,-1
 128 192 l 1,4,-1
64 64 m 1,8,-1
 64 192 l 1,9,-1
 128 192 l 1,10,-1
 128 64 l 1,11,-1
 64 64 l 1,8,-1
0 0 m 1,12,-1
 0 64 l 1,13,-1
 64 64 l 1,14,-1
 64 0 l 1,15,-1
 0 0 l 1,12,-1
EndSplineSet
EndChar

StartChar: zero
Encoding: 48 48 21
Width: 320
GlyphClass: 2
Flags: W
LayerCount: 2
Fore
SplineSet
64 256 m 1,0,-1
 64 320 l 1,1,-1
 192 320 l 1,2,-1
 192 256 l 1,3,-1
 64 256 l 1,0,-1
0 64 m 1,4,-1
 0 256 l 1,5,-1
 64 256 l 1,6,-1
 64 64 l 1,7,-1
 0 64 l 1,4,-1
192 64 m 1,8,-1
 192 256 l 1,9,-1
 256 256 l 1,10,-1
 256 64 l 1,11,-1
 192 64 l 1,8,-1
64 0 m 1,12,-1
 64 64 l 1,13,-1
 192 64 l 1,14,-1
 192 0 l 1,15,-1
 64 0 l 1,12,-1
EndSplineSet
EndChar

StartChar: one
Encoding: 49 49 22
Width: 192
GlyphClass: 2
Flags: W
LayerCount: 2
Fore
SplineSet
64 0 m 1,0,-1
 64 256 l 1,1,-1
 0 256 l 1,2,-1
 0 320 l 1,3,-1
 128 320 l 1,4,-1
 128 0 l 1,5,-1
 64 0 l 1,0,-1
EndSplineSet
EndChar

StartChar: two
Encoding: 50 50 23
Width: 320
GlyphClass: 2
Flags: W
LayerCount: 2
Fore
SplineSet
64 256 m 1,0,-1
 64 320 l 1,1,-1
 192 320 l 1,2,-1
 192 256 l 1,3,-1
 64 256 l 1,0,-1
0 192 m 1,4,-1
 0 256 l 1,5,-1
 64 256 l 1,6,-1
 64 192 l 1,7,-1
 0 192 l 1,4,-1
192 192 m 1,8,-1
 192 256 l 1,9,-1
 256 256 l 1,10,-1
 256 192 l 1,11,-1
 192 192 l 1,8,-1
128 128 m 1,12,-1
 128 192 l 1,13,-1
 192 192 l 1,14,-1
 192 128 l 1,15,-1
 128 128 l 1,12,-1
0 0 m 1,16,-1
 0 64 l 1,17,-1
 64 64 l 1,18,-1
 64 128 l 1,19,-1
 128 128 l 1,20,-1
 128 64 l 1,21,-1
 256 64 l 1,22,-1
 256 0 l 1,23,-1
 0 0 l 1,16,-1
EndSplineSet
EndChar

StartChar: three
Encoding: 51 51 24
Width: 256
GlyphClass: 2
Flags: W
LayerCount: 2
Fore
SplineSet
0 256 m 1,0,-1
 0 320 l 1,1,-1
 128 320 l 1,2,-1
 128 256 l 1,3,-1
 0 256 l 1,0,-1
128 192 m 1,4,-1
 128 256 l 1,5,-1
 192 256 l 1,6,-1
 192 192 l 1,7,-1
 128 192 l 1,4,-1
64 128 m 1,8,-1
 64 192 l 1,9,-1
 128 192 l 1,10,-1
 128 128 l 1,11,-1
 64 128 l 1,8,-1
128 64 m 1,12,-1
 128 128 l 1,13,-1
 192 128 l 1,14,-1
 192 64 l 1,15,-1
 128 64 l 1,12,-1
0 0 m 1,16,-1
 0 64 l 1,17,-1
 128 64 l 1,18,-1
 128 0 l 1,19,-1
 0 0 l 1,16,-1
EndSplineSet
EndChar

StartChar: four
Encoding: 52 52 25
Width: 320
GlyphClass: 2
Flags: W
LayerCount: 2
Fore
SplineSet
128 0 m 1,0,-1
 128 64 l 1,1,-1
 0 64 l 1,2,-1
 0 320 l 1,3,-1
 64 320 l 1,4,-1
 64 128 l 1,5,-1
 128 128 l 1,6,-1
 128 192 l 1,7,-1
 192 192 l 1,8,-1
 192 128 l 1,9,-1
 256 128 l 1,10,-1
 256 64 l 1,11,-1
 192 64 l 1,12,-1
 192 0 l 1,13,-1
 128 0 l 1,0,-1
EndSplineSet
EndChar

StartChar: five
Encoding: 53 53 26
Width: 320
GlyphClass: 2
Flags: W
LayerCount: 2
Fore
SplineSet
0 192 m 1,0,-1
 0 320 l 1,1,-1
 192 320 l 1,2,-1
 192 256 l 1,3,-1
 64 256 l 1,4,-1
 64 192 l 1,5,-1
 0 192 l 1,0,-1
64 128 m 1,6,-1
 64 192 l 1,7,-1
 192 192 l 1,8,-1
 192 128 l 1,9,-1
 64 128 l 1,6,-1
192 64 m 1,10,-1
 192 128 l 1,11,-1
 256 128 l 1,12,-1
 256 64 l 1,13,-1
 192 64 l 1,10,-1
0 0 m 1,14,-1
 0 64 l 1,15,-1
 192 64 l 1,16,-1
 192 0 l 1,17,-1
 0 0 l 1,14,-1
EndSplineSet
EndChar

StartChar: six
Encoding: 54 54 27
Width: 320
GlyphClass: 2
Flags: W
LayerCount: 2
Fore
SplineSet
64 256 m 1,0,-1
 64 320 l 1,1,-1
 192 320 l 1,2,-1
 192 256 l 1,3,-1
 64 256 l 1,0,-1
0 64 m 1,4,-1
 0 256 l 1,5,-1
 64 256 l 1,6,-1
 64 192 l 1,7,-1
 192 192 l 1,8,-1
 192 128 l 1,9,-1
 64 128 l 1,10,-1
 64 64 l 1,11,-1
 0 64 l 1,4,-1
192 64 m 1,12,-1
 192 128 l 1,13,-1
 256 128 l 1,14,-1
 256 64 l 1,15,-1
 192 64 l 1,12,-1
64 0 m 1,16,-1
 64 64 l 1,17,-1
 192 64 l 1,18,-1
 192 0 l 1,19,-1
 64 0 l 1,16,-1
EndSplineSet
EndChar

StartChar: seven
Encoding: 55 55 28
Width: 256
GlyphClass: 2
Flags: W
LayerCount: 2
Fore
SplineSet
128 192 m 1,0,-1
 128 256 l 1,1,-1
 0 256 l 1,2,-1
 0 320 l 1,3,-1
 192 320 l 1,4,-1
 192 192 l 1,5,-1
 128 192 l 1,0,-1
64 64 m 1,6,-1
 64 192 l 1,7,-1
 128 192 l 1,8,-1
 128 64 l 1,9,-1
 64 64 l 1,6,-1
0 0 m 1,10,-1
 0 64 l 1,11,-1
 64 64 l 1,12,-1
 64 0 l 1,13,-1
 0 0 l 1,10,-1
EndSplineSet
EndChar

StartChar: eight
Encoding: 56 56 29
Width: 320
GlyphClass: 2
Flags: W
LayerCount: 2
Fore
SplineSet
64 256 m 1,0,-1
 64 320 l 1,1,-1
 192 320 l 1,2,-1
 192 256 l 1,3,-1
 64 256 l 1,0,-1
0 192 m 1,4,-1
 0 256 l 1,5,-1
 64 256 l 1,6,-1
 64 192 l 1,7,-1
 0 192 l 1,4,-1
192 192 m 1,8,-1
 192 256 l 1,9,-1
 256 256 l 1,10,-1
 256 192 l 1,11,-1
 192 192 l 1,8,-1
64 128 m 1,12,-1
 64 192 l 1,13,-1
 192 192 l 1,14,-1
 192 128 l 1,15,-1
 64 128 l 1,12,-1
0 64 m 1,16,-1
 0 128 l 1,17,-1
 64 128 l 1,18,-1
 64 64 l 1,19,-1
 0 64 l 1,16,-1
192 64 m 1,20,-1
 192 128 l 1,21,-1
 256 128 l 1,22,-1
 256 64 l 1,23,-1
 192 64 l 1,20,-1
64 0 m 1,24,-1
 64 64 l 1,25,-1
 192 64 l 1,26,-1
 192 0 l 1,27,-1
 64 0 l 1,24,-1
EndSplineSet
EndChar

StartChar: nine
Encoding: 57 57 30
Width: 320
GlyphClass: 2
Flags: W
LayerCount: 2
Fore
SplineSet
64 256 m 1,0,-1
 64 320 l 1,1,-1
 192 320 l 1,2,-1
 192 256 l 1,3,-1
 64 256 l 1,0,-1
0 192 m 1,4,-1
 0 256 l 1,5,-1
 64 256 l 1,6,-1
 64 192 l 1,7,-1
 192 192 l 1,8,-1
 192 256 l 1,9,-1
 256 256 l 1,10,-1
 256 64 l 1,11,-1
 192 64 l 1,12,-1
 192 128 l 1,13,-1
 64 128 l 1,14,-1
 64 192 l 1,15,-1
 0 192 l 1,4,-1
64 0 m 1,16,-1
 64 64 l 1,17,-1
 192 64 l 1,18,-1
 192 0 l 1,19,-1
 64 0 l 1,16,-1
EndSplineSet
EndChar

StartChar: colon
Encoding: 58 58 31
Width: 128
GlyphClass: 2
Flags: W
LayerCount: 2
Fore
SplineSet
0 192 m 5,0,-1
 0 256 l 5,1,-1
 64 256 l 5,2,-1
 64 192 l 5,3,-1
 0 192 l 5,0,-1
0 64 m 5,4,-1
 0 128 l 5,5,-1
 64 128 l 5,6,-1
 64 64 l 5,7,-1
 0 64 l 5,4,-1
EndSplineSet
EndChar

StartChar: semicolon
Encoding: 59 59 32
Width: 128
GlyphClass: 2
Flags: W
LayerCount: 2
Fore
SplineSet
0 128 m 1,0,-1
 0 192 l 1,1,-1
 64 192 l 1,2,-1
 64 128 l 1,3,-1
 0 128 l 1,0,-1
0 -64 m 1,4,-1
 0 64 l 1,5,-1
 64 64 l 1,6,-1
 64 0 l 1,7,-1
 0 -64 l 1,4,-1
EndSplineSet
EndChar

StartChar: less
Encoding: 60 60 33
Width: 256
GlyphClass: 2
Flags: W
LayerCount: 2
Fore
SplineSet
128 256 m 1,0,-1
 128 320 l 1,1,-1
 192 320 l 1,2,-1
 192 256 l 1,3,-1
 128 256 l 1,0,-1
64 192 m 1,4,-1
 64 256 l 1,5,-1
 128 256 l 1,6,-1
 128 192 l 1,7,-1
 64 192 l 1,4,-1
0 128 m 1,8,-1
 0 192 l 1,9,-1
 64 192 l 1,10,-1
 64 128 l 1,11,-1
 0 128 l 1,8,-1
64 64 m 1,12,-1
 64 128 l 1,13,-1
 128 128 l 1,14,-1
 128 64 l 1,15,-1
 64 64 l 1,12,-1
128 0 m 1,16,-1
 128 64 l 1,17,-1
 192 64 l 1,18,-1
 192 0 l 1,19,-1
 128 0 l 1,16,-1
EndSplineSet
EndChar

StartChar: equal
Encoding: 61 61 34
Width: 256
GlyphClass: 2
Flags: W
LayerCount: 2
Fore
SplineSet
0 192 m 1,0,-1
 0 256 l 1,1,-1
 192 256 l 1,2,-1
 192 192 l 1,3,-1
 0 192 l 1,0,-1
0 64 m 1,4,-1
 0 128 l 1,5,-1
 192 128 l 1,6,-1
 192 64 l 1,7,-1
 0 64 l 1,4,-1
EndSplineSet
EndChar

StartChar: greater
Encoding: 62 62 35
Width: 256
GlyphClass: 2
Flags: W
LayerCount: 2
Fore
SplineSet
0 256 m 1,0,-1
 0 320 l 1,1,-1
 64 320 l 1,2,-1
 64 256 l 1,3,-1
 0 256 l 1,0,-1
64 192 m 1,4,-1
 64 256 l 1,5,-1
 128 256 l 1,6,-1
 128 192 l 1,7,-1
 64 192 l 1,4,-1
128 128 m 1,8,-1
 128 192 l 1,9,-1
 192 192 l 1,10,-1
 192 128 l 1,11,-1
 128 128 l 1,8,-1
64 64 m 1,12,-1
 64 128 l 1,13,-1
 128 128 l 1,14,-1
 128 64 l 1,15,-1
 64 64 l 1,12,-1
0 0 m 1,16,-1
 0 64 l 1,17,-1
 64 64 l 1,18,-1
 64 0 l 1,19,-1
 0 0 l 1,16,-1
EndSplineSet
EndChar

StartChar: question
Encoding: 63 63 36
Width: 320
GlyphClass: 2
Flags: W
LayerCount: 2
Fore
SplineSet
64 320 m 1,0,-1
 64 384 l 1,1,-1
 192 384 l 1,2,-1
 192 320 l 1,3,-1
 64 320 l 1,0,-1
0 256 m 1,4,-1
 0 320 l 1,5,-1
 64 320 l 1,6,-1
 64 256 l 1,7,-1
 0 256 l 1,4,-1
192 256 m 1,8,-1
 192 320 l 1,9,-1
 256 320 l 1,10,-1
 256 256 l 1,11,-1
 192 256 l 1,8,-1
128 192 m 1,12,-1
 128 256 l 1,13,-1
 192 256 l 1,14,-1
 192 192 l 1,15,-1
 128 192 l 1,12,-1
64 128 m 1,16,-1
 64 192 l 1,17,-1
 128 192 l 1,18,-1
 128 128 l 1,19,-1
 64 128 l 1,16,-1
64 0 m 1,20,-1
 64 64 l 1,21,-1
 128 64 l 1,22,-1
 128 0 l 1,23,-1
 64 0 l 1,20,-1
EndSplineSet
EndChar

StartChar: at
Encoding: 64 64 37
Width: 512
GlyphClass: 2
Flags: W
LayerCount: 2
Fore
SplineSet
128 448 m 1,0,-1
 128 512 l 1,1,-1
 320 512 l 1,2,-1
 320 448 l 1,3,-1
 128 448 l 1,0,-1
64 384 m 1,4,-1
 64 448 l 1,5,-1
 128 448 l 1,6,-1
 128 384 l 1,7,-1
 64 384 l 1,4,-1
320 384 m 1,8,-1
 320 448 l 1,9,-1
 384 448 l 1,10,-1
 384 384 l 1,11,-1
 320 384 l 1,8,-1
0 128 m 1,12,-1
 0 384 l 1,13,-1
 64 384 l 1,14,-1
 64 128 l 1,15,-1
 0 128 l 1,12,-1
192 320 m 1,16,-1
 192 384 l 1,17,-1
 256 384 l 1,18,-1
 256 320 l 1,19,-1
 192 320 l 1,16,-1
384 192 m 1,20,-1
 384 384 l 1,21,-1
 448 384 l 1,22,-1
 448 192 l 1,23,-1
 384 192 l 1,20,-1
128 192 m 1,24,-1
 128 320 l 1,25,-1
 192 320 l 1,26,-1
 192 192 l 1,27,-1
 128 192 l 1,24,-1
256 192 m 1,28,-1
 256 320 l 1,29,-1
 320 320 l 1,30,-1
 320 192 l 1,31,-1
 256 192 l 1,28,-1
192 128 m 1,32,-1
 192 192 l 1,33,-1
 256 192 l 1,34,-1
 256 128 l 1,35,-1
 192 128 l 1,32,-1
320 128 m 1,36,-1
 320 192 l 1,37,-1
 384 192 l 1,38,-1
 384 128 l 1,39,-1
 320 128 l 1,36,-1
64 64 m 1,40,-1
 64 128 l 1,41,-1
 128 128 l 1,42,-1
 128 64 l 1,43,-1
 64 64 l 1,40,-1
128 0 m 1,44,-1
 128 64 l 1,45,-1
 384 64 l 1,46,-1
 384 0 l 1,47,-1
 128 0 l 1,44,-1
EndSplineSet
EndChar

StartChar: A
Encoding: 65 65 38
Width: 320
GlyphClass: 2
Flags: W
LayerCount: 2
Fore
SplineSet
64 256 m 1,0,-1
 64 320 l 1,1,-1
 192 320 l 1,2,-1
 192 256 l 1,3,-1
 64 256 l 1,0,-1
0 0 m 1,4,-1
 0 256 l 1,5,-1
 64 256 l 1,6,-1
 64 128 l 1,7,-1
 192 128 l 1,8,-1
 192 256 l 1,9,-1
 256 256 l 1,10,-1
 256 0 l 1,11,-1
 192 0 l 1,12,-1
 192 64 l 1,13,-1
 64 64 l 1,14,-1
 64 0 l 1,15,-1
 0 0 l 1,4,-1
EndSplineSet
EndChar

StartChar: B
Encoding: 66 66 39
Width: 320
GlyphClass: 2
Flags: W
LayerCount: 2
Fore
SplineSet
192 64 m 1,0,-1
 192 0 l 1,1,-1
 0 0 l 1,2,-1
 0 320 l 1,3,-1
 192 320 l 1,4,-1
 192 256 l 1,5,-1
 64 256 l 1,6,-1
 64 192 l 1,7,-1
 192 192 l 1,8,-1
 192 128 l 1,9,-1
 64 128 l 1,10,-1
 64 64 l 1,11,-1
 192 64 l 1,0,-1
192 192 m 1,12,-1
 192 256 l 1,13,-1
 256 256 l 1,14,-1
 256 192 l 1,15,-1
 192 192 l 1,12,-1
192 64 m 1,16,-1
 192 128 l 1,17,-1
 256 128 l 1,18,-1
 256 64 l 1,19,-1
 192 64 l 1,16,-1
EndSplineSet
EndChar

StartChar: C
Encoding: 67 67 40
Width: 256
GlyphClass: 2
Flags: W
LayerCount: 2
Fore
SplineSet
64 256 m 1,0,-1
 64 320 l 1,1,-1
 192 320 l 1,2,-1
 192 256 l 1,3,-1
 64 256 l 1,0,-1
0 64 m 1,4,-1
 0 256 l 1,5,-1
 64 256 l 1,6,-1
 64 64 l 1,7,-1
 0 64 l 1,4,-1
64 0 m 1,8,-1
 64 64 l 1,9,-1
 192 64 l 1,10,-1
 192 0 l 1,11,-1
 64 0 l 1,8,-1
EndSplineSet
EndChar

StartChar: D
Encoding: 68 68 41
Width: 320
GlyphClass: 2
Flags: W
LayerCount: 2
Fore
SplineSet
192 64 m 1,0,-1
 192 0 l 1,1,-1
 0 0 l 1,2,-1
 0 320 l 1,3,-1
 192 320 l 1,4,-1
 192 256 l 1,5,-1
 64 256 l 1,6,-1
 64 64 l 1,7,-1
 192 64 l 1,0,-1
192 64 m 1,8,-1
 192 256 l 1,9,-1
 256 256 l 1,10,-1
 256 64 l 1,11,-1
 192 64 l 1,8,-1
EndSplineSet
EndChar

StartChar: E
Encoding: 69 69 42
Width: 256
GlyphClass: 2
Flags: W
LayerCount: 2
Fore
SplineSet
0 0 m 1,0,-1
 0 320 l 1,1,-1
 192 320 l 1,2,-1
 192 256 l 1,3,-1
 64 256 l 1,4,-1
 64 192 l 1,5,-1
 128 192 l 1,6,-1
 128 128 l 1,7,-1
 64 128 l 1,8,-1
 64 64 l 1,9,-1
 192 64 l 1,10,-1
 192 0 l 1,11,-1
 0 0 l 1,0,-1
EndSplineSet
EndChar

StartChar: F
Encoding: 70 70 43
Width: 256
GlyphClass: 2
Flags: W
LayerCount: 2
Fore
SplineSet
0 0 m 1,0,-1
 0 320 l 1,1,-1
 192 320 l 1,2,-1
 192 256 l 1,3,-1
 64 256 l 1,4,-1
 64 192 l 1,5,-1
 128 192 l 1,6,-1
 128 128 l 1,7,-1
 64 128 l 1,8,-1
 64 0 l 1,9,-1
 0 0 l 1,0,-1
EndSplineSet
EndChar

StartChar: G
Encoding: 71 71 44
Width: 320
GlyphClass: 2
Flags: W
LayerCount: 2
Fore
SplineSet
64 256 m 1,0,-1
 64 320 l 1,1,-1
 256 320 l 1,2,-1
 256 256 l 1,3,-1
 64 256 l 1,0,-1
64 0 m 1,4,-1
 64 64 l 1,5,-1
 0 64 l 1,6,-1
 0 256 l 1,7,-1
 64 256 l 1,8,-1
 64 64 l 1,9,-1
 192 64 l 1,10,-1
 192 128 l 1,11,-1
 128 128 l 1,12,-1
 128 192 l 1,13,-1
 256 192 l 1,14,-1
 256 0 l 1,15,-1
 64 0 l 1,4,-1
EndSplineSet
EndChar

StartChar: H
Encoding: 72 72 45
Width: 320
GlyphClass: 2
Flags: W
LayerCount: 2
Fore
SplineSet
0 0 m 1,0,-1
 0 320 l 1,1,-1
 64 320 l 1,2,-1
 64 192 l 1,3,-1
 192 192 l 1,4,-1
 192 320 l 1,5,-1
 256 320 l 1,6,-1
 256 0 l 1,7,-1
 192 0 l 1,8,-1
 192 128 l 1,9,-1
 64 128 l 1,10,-1
 64 0 l 1,11,-1
 0 0 l 1,0,-1
EndSplineSet
EndChar

StartChar: I
Encoding: 73 73 46
Width: 256
GlyphClass: 2
Flags: W
LayerCount: 2
Fore
SplineSet
0 0 m 1,0,-1
 0 64 l 1,1,-1
 64 64 l 1,2,-1
 64 256 l 1,3,-1
 0 256 l 1,4,-1
 0 320 l 1,5,-1
 192 320 l 1,6,-1
 192 256 l 1,7,-1
 128 256 l 1,8,-1
 128 64 l 1,9,-1
 192 64 l 1,10,-1
 192 0 l 1,11,-1
 0 0 l 1,0,-1
EndSplineSet
EndChar

StartChar: J
Encoding: 74 74 47
Width: 320
GlyphClass: 2
Flags: W
LayerCount: 2
Fore
SplineSet
128 64 m 1,0,-1
 128 256 l 1,1,-1
 0 256 l 1,2,-1
 0 320 l 1,3,-1
 256 320 l 1,4,-1
 256 256 l 1,5,-1
 192 256 l 1,6,-1
 192 64 l 1,7,-1
 128 64 l 1,0,-1
0 64 m 1,8,-1
 0 128 l 1,9,-1
 64 128 l 1,10,-1
 64 64 l 1,11,-1
 0 64 l 1,8,-1
64 0 m 1,12,-1
 64 64 l 1,13,-1
 128 64 l 1,14,-1
 128 0 l 1,15,-1
 64 0 l 1,12,-1
EndSplineSet
EndChar

StartChar: K
Encoding: 75 75 48
Width: 320
GlyphClass: 2
Flags: W
LayerCount: 2
Fore
SplineSet
128 192 m 1,0,-1
 128 128 l 1,1,-1
 64 128 l 1,2,-1
 64 0 l 1,3,-1
 0 0 l 1,4,-1
 0 320 l 1,5,-1
 64 320 l 1,6,-1
 64 192 l 1,7,-1
 128 192 l 1,0,-1
192 256 m 1,8,-1
 192 320 l 1,9,-1
 256 320 l 1,10,-1
 256 256 l 1,11,-1
 192 256 l 1,8,-1
128 192 m 1,12,-1
 128 256 l 1,13,-1
 192 256 l 1,14,-1
 192 192 l 1,15,-1
 128 192 l 1,12,-1
128 64 m 1,16,-1
 128 128 l 1,17,-1
 192 128 l 1,18,-1
 192 64 l 1,19,-1
 128 64 l 1,16,-1
192 0 m 1,20,-1
 192 64 l 1,21,-1
 256 64 l 1,22,-1
 256 0 l 1,23,-1
 192 0 l 1,20,-1
EndSplineSet
EndChar

StartChar: L
Encoding: 76 76 49
Width: 256
GlyphClass: 2
Flags: W
LayerCount: 2
Fore
SplineSet
0 0 m 1,0,-1
 0 320 l 1,1,-1
 64 320 l 1,2,-1
 64 64 l 1,3,-1
 192 64 l 1,4,-1
 192 0 l 1,5,-1
 0 0 l 1,0,-1
EndSplineSet
EndChar

StartChar: M
Encoding: 77 77 50
Width: 384
GlyphClass: 2
Flags: W
LayerCount: 2
Fore
SplineSet
0 0 m 1,0,-1
 0 320 l 1,1,-1
 128 320 l 1,2,-1
 128 256 l 1,3,-1
 64 256 l 1,4,-1
 64 0 l 1,5,-1
 0 0 l 1,0,-1
256 0 m 1,6,-1
 256 256 l 1,7,-1
 192 256 l 1,8,-1
 192 320 l 1,9,-1
 320 320 l 1,10,-1
 320 0 l 1,11,-1
 256 0 l 1,6,-1
128 128 m 1,12,-1
 128 256 l 1,13,-1
 192 256 l 1,14,-1
 192 128 l 1,15,-1
 128 128 l 1,12,-1
EndSplineSet
EndChar

StartChar: N
Encoding: 78 78 51
Width: 320
GlyphClass: 2
Flags: W
LayerCount: 2
Fore
SplineSet
0 0 m 1,0,-1
 0 320 l 1,1,-1
 64 320 l 1,2,-1
 64 256 l 1,3,-1
 128 256 l 1,4,-1
 128 192 l 1,5,-1
 64 192 l 1,6,-1
 64 0 l 1,7,-1
 0 0 l 1,0,-1
192 0 m 1,8,-1
 192 128 l 1,9,-1
 128 128 l 1,10,-1
 128 192 l 1,11,-1
 192 192 l 1,12,-1
 192 320 l 1,13,-1
 256 320 l 1,14,-1
 256 0 l 1,15,-1
 192 0 l 1,8,-1
EndSplineSet
EndChar

StartChar: O
Encoding: 79 79 52
Width: 320
GlyphClass: 2
Flags: W
LayerCount: 2
Fore
SplineSet
64 256 m 1,0,-1
 64 320 l 1,1,-1
 192 320 l 1,2,-1
 192 256 l 1,3,-1
 64 256 l 1,0,-1
0 64 m 1,4,-1
 0 256 l 1,5,-1
 64 256 l 1,6,-1
 64 64 l 1,7,-1
 0 64 l 1,4,-1
192 64 m 1,8,-1
 192 256 l 1,9,-1
 256 256 l 1,10,-1
 256 64 l 1,11,-1
 192 64 l 1,8,-1
64 0 m 1,12,-1
 64 64 l 1,13,-1
 192 64 l 1,14,-1
 192 0 l 1,15,-1
 64 0 l 1,12,-1
EndSplineSet
EndChar

StartChar: P
Encoding: 80 80 53
Width: 320
GlyphClass: 2
Flags: W
LayerCount: 2
Fore
SplineSet
192 128 m 1,0,-1
 192 64 l 1,1,-1
 64 64 l 1,2,-1
 64 0 l 1,3,-1
 0 0 l 1,4,-1
 0 320 l 1,5,-1
 192 320 l 1,6,-1
 192 256 l 1,7,-1
 64 256 l 1,8,-1
 64 128 l 1,9,-1
 192 128 l 1,0,-1
192 128 m 1,10,-1
 192 256 l 1,11,-1
 256 256 l 1,12,-1
 256 128 l 1,13,-1
 192 128 l 1,10,-1
EndSplineSet
EndChar

StartChar: Q
Encoding: 81 81 54
Width: 320
GlyphClass: 2
Flags: W
LayerCount: 2
Fore
SplineSet
64 256 m 1,0,-1
 64 320 l 1,1,-1
 192 320 l 1,2,-1
 192 256 l 1,3,-1
 64 256 l 1,0,-1
0 64 m 1,4,-1
 0 256 l 1,5,-1
 64 256 l 1,6,-1
 64 64 l 1,7,-1
 128 64 l 1,8,-1
 128 128 l 1,9,-1
 192 128 l 1,10,-1
 192 256 l 1,11,-1
 256 256 l 1,12,-1
 256 0 l 1,13,-1
 64 0 l 1,14,-1
 64 64 l 1,15,-1
 0 64 l 1,4,-1
EndSplineSet
EndChar

StartChar: R
Encoding: 82 82 55
Width: 320
GlyphClass: 2
Flags: W
LayerCount: 2
Fore
SplineSet
192 128 m 1,0,-1
 192 64 l 1,1,-1
 64 64 l 1,2,-1
 64 0 l 1,3,-1
 0 0 l 1,4,-1
 0 320 l 1,5,-1
 192 320 l 1,6,-1
 192 256 l 1,7,-1
 64 256 l 1,8,-1
 64 128 l 1,9,-1
 192 128 l 1,0,-1
192 128 m 1,10,-1
 192 256 l 1,11,-1
 256 256 l 1,12,-1
 256 128 l 1,13,-1
 192 128 l 1,10,-1
192 0 m 1,14,-1
 192 64 l 1,15,-1
 256 64 l 1,16,-1
 256 0 l 1,17,-1
 192 0 l 1,14,-1
EndSplineSet
EndChar

StartChar: S
Encoding: 83 83 56
Width: 320
GlyphClass: 2
Flags: W
LayerCount: 2
Fore
SplineSet
64 256 m 1,0,-1
 64 320 l 1,1,-1
 256 320 l 1,2,-1
 256 256 l 1,3,-1
 64 256 l 1,0,-1
0 192 m 1,4,-1
 0 256 l 1,5,-1
 64 256 l 1,6,-1
 64 192 l 1,7,-1
 0 192 l 1,4,-1
64 128 m 1,8,-1
 64 192 l 1,9,-1
 192 192 l 1,10,-1
 192 128 l 1,11,-1
 64 128 l 1,8,-1
192 64 m 1,12,-1
 192 128 l 1,13,-1
 256 128 l 1,14,-1
 256 64 l 1,15,-1
 192 64 l 1,12,-1
0 0 m 1,16,-1
 0 64 l 1,17,-1
 192 64 l 1,18,-1
 192 0 l 1,19,-1
 0 0 l 1,16,-1
EndSplineSet
EndChar

StartChar: T
Encoding: 84 84 57
Width: 256
GlyphClass: 2
Flags: W
LayerCount: 2
Fore
SplineSet
64 0 m 1,0,-1
 64 256 l 1,1,-1
 0 256 l 1,2,-1
 0 320 l 1,3,-1
 192 320 l 1,4,-1
 192 256 l 1,5,-1
 128 256 l 1,6,-1
 128 0 l 1,7,-1
 64 0 l 1,0,-1
EndSplineSet
EndChar

StartChar: U
Encoding: 85 85 58
Width: 320
GlyphClass: 2
Flags: W
LayerCount: 2
Fore
SplineSet
0 64 m 1,0,-1
 0 320 l 1,1,-1
 64 320 l 1,2,-1
 64 64 l 1,3,-1
 0 64 l 1,0,-1
192 64 m 1,4,-1
 192 320 l 1,5,-1
 256 320 l 1,6,-1
 256 64 l 1,7,-1
 192 64 l 1,4,-1
64 0 m 1,8,-1
 64 64 l 1,9,-1
 192 64 l 1,10,-1
 192 0 l 1,11,-1
 64 0 l 1,8,-1
EndSplineSet
EndChar

StartChar: V
Encoding: 86 86 59
Width: 384
GlyphClass: 2
Flags: W
LayerCount: 2
Fore
SplineSet
0 192 m 1,0,-1
 0 320 l 1,1,-1
 64 320 l 1,2,-1
 64 192 l 1,3,-1
 0 192 l 1,0,-1
256 192 m 1,4,-1
 256 320 l 1,5,-1
 320 320 l 1,6,-1
 320 192 l 1,7,-1
 256 192 l 1,4,-1
64 64 m 1,8,-1
 64 192 l 1,9,-1
 128 192 l 1,10,-1
 128 64 l 1,11,-1
 64 64 l 1,8,-1
192 64 m 1,12,-1
 192 192 l 1,13,-1
 256 192 l 1,14,-1
 256 64 l 1,15,-1
 192 64 l 1,12,-1
128 0 m 1,16,-1
 128 64 l 1,17,-1
 192 64 l 1,18,-1
 192 0 l 1,19,-1
 128 0 l 1,16,-1
EndSplineSet
EndChar

StartChar: W
Encoding: 87 87 60
Width: 384
GlyphClass: 2
Flags: W
LayerCount: 2
Fore
SplineSet
64 0 m 1,0,-1
 64 64 l 1,1,-1
 0 64 l 1,2,-1
 0 320 l 1,3,-1
 64 320 l 1,4,-1
 64 64 l 1,5,-1
 128 64 l 1,6,-1
 128 192 l 1,7,-1
 192 192 l 1,8,-1
 192 64 l 1,9,-1
 256 64 l 1,10,-1
 256 0 l 1,11,-1
 64 0 l 1,0,-1
256 64 m 1,12,-1
 256 320 l 1,13,-1
 320 320 l 1,14,-1
 320 64 l 1,15,-1
 256 64 l 1,12,-1
EndSplineSet
EndChar

StartChar: X
Encoding: 88 88 61
Width: 384
GlyphClass: 2
Flags: W
LayerCount: 2
Fore
SplineSet
0 256 m 1,0,-1
 0 320 l 1,1,-1
 64 320 l 1,2,-1
 64 256 l 1,3,-1
 0 256 l 1,0,-1
256 256 m 1,4,-1
 256 320 l 1,5,-1
 320 320 l 1,6,-1
 320 256 l 1,7,-1
 256 256 l 1,4,-1
64 192 m 1,8,-1
 64 256 l 1,9,-1
 128 256 l 1,10,-1
 128 192 l 1,11,-1
 64 192 l 1,8,-1
192 192 m 1,12,-1
 192 256 l 1,13,-1
 256 256 l 1,14,-1
 256 192 l 1,15,-1
 192 192 l 1,12,-1
128 128 m 1,16,-1
 128 192 l 1,17,-1
 192 192 l 1,18,-1
 192 128 l 1,19,-1
 128 128 l 1,16,-1
64 64 m 1,20,-1
 64 128 l 1,21,-1
 128 128 l 1,22,-1
 128 64 l 1,23,-1
 64 64 l 1,20,-1
192 64 m 1,24,-1
 192 128 l 1,25,-1
 256 128 l 1,26,-1
 256 64 l 1,27,-1
 192 64 l 1,24,-1
0 0 m 1,28,-1
 0 64 l 1,29,-1
 64 64 l 1,30,-1
 64 0 l 1,31,-1
 0 0 l 1,28,-1
256 0 m 1,32,-1
 256 64 l 1,33,-1
 320 64 l 1,34,-1
 320 0 l 1,35,-1
 256 0 l 1,32,-1
EndSplineSet
EndChar

StartChar: Y
Encoding: 89 89 62
Width: 384
GlyphClass: 2
Flags: W
LayerCount: 2
Fore
SplineSet
0 256 m 1,0,-1
 0 320 l 1,1,-1
 64 320 l 1,2,-1
 64 256 l 1,3,-1
 0 256 l 1,0,-1
256 256 m 1,4,-1
 256 320 l 1,5,-1
 320 320 l 1,6,-1
 320 256 l 1,7,-1
 256 256 l 1,4,-1
64 192 m 1,8,-1
 64 256 l 1,9,-1
 128 256 l 1,10,-1
 128 192 l 1,11,-1
 64 192 l 1,8,-1
192 192 m 1,12,-1
 192 256 l 1,13,-1
 256 256 l 1,14,-1
 256 192 l 1,15,-1
 192 192 l 1,12,-1
128 0 m 1,16,-1
 128 192 l 1,17,-1
 192 192 l 1,18,-1
 192 0 l 1,19,-1
 128 0 l 1,16,-1
EndSplineSet
EndChar

StartChar: Z
Encoding: 90 90 63
Width: 320
GlyphClass: 2
Flags: W
LayerCount: 2
Fore
SplineSet
192 192 m 1,0,-1
 192 256 l 1,1,-1
 0 256 l 1,2,-1
 0 320 l 1,3,-1
 256 320 l 1,4,-1
 256 192 l 1,5,-1
 192 192 l 1,0,-1
128 128 m 1,6,-1
 128 192 l 1,7,-1
 192 192 l 1,8,-1
 192 128 l 1,9,-1
 128 128 l 1,6,-1
0 0 m 1,10,-1
 0 64 l 1,11,-1
 64 64 l 1,12,-1
 64 128 l 1,13,-1
 128 128 l 1,14,-1
 128 64 l 1,15,-1
 256 64 l 1,16,-1
 256 0 l 1,17,-1
 0 0 l 1,10,-1
EndSplineSet
EndChar

StartChar: bracketleft
Encoding: 91 91 64
Width: 192
GlyphClass: 2
Flags: W
LayerCount: 2
Fore
SplineSet
0 0 m 1,0,-1
 0 384 l 1,1,-1
 128 384 l 1,2,-1
 128 320 l 1,3,-1
 64 320 l 1,4,-1
 64 64 l 1,5,-1
 128 64 l 1,6,-1
 128 0 l 1,7,-1
 0 0 l 1,0,-1
EndSplineSet
EndChar

StartChar: backslash
Encoding: 92 92 65
Width: 320
GlyphClass: 2
Flags: W
LayerCount: 2
Fore
SplineSet
0 320 m 1,0,-1
 0 384 l 1,1,-1
 64 384 l 1,2,-1
 64 320 l 1,3,-1
 0 320 l 1,0,-1
64 192 m 1,4,-1
 64 320 l 1,5,-1
 128 320 l 1,6,-1
 128 192 l 1,7,-1
 64 192 l 1,4,-1
128 64 m 1,8,-1
 128 192 l 1,9,-1
 192 192 l 1,10,-1
 192 64 l 1,11,-1
 128 64 l 1,8,-1
192 0 m 1,12,-1
 192 64 l 1,13,-1
 256 64 l 1,14,-1
 256 0 l 1,15,-1
 192 0 l 1,12,-1
EndSplineSet
EndChar

StartChar: bracketright
Encoding: 93 93 66
Width: 192
GlyphClass: 2
Flags: W
LayerCount: 2
Fore
SplineSet
0 0 m 1,0,-1
 0 64 l 1,1,-1
 64 64 l 1,2,-1
 64 320 l 1,3,-1
 0 320 l 1,4,-1
 0 384 l 1,5,-1
 128 384 l 1,6,-1
 128 0 l 1,7,-1
 0 0 l 1,0,-1
EndSplineSet
EndChar

StartChar: asciicircum
Encoding: 94 94 67
Width: 256
GlyphClass: 2
Flags: W
LayerCount: 2
Fore
SplineSet
64 256 m 1,0,-1
 64 320 l 1,1,-1
 128 320 l 1,2,-1
 128 256 l 1,3,-1
 64 256 l 1,0,-1
0 192 m 1,4,-1
 0 256 l 1,5,-1
 64 256 l 1,6,-1
 64 192 l 1,7,-1
 0 192 l 1,4,-1
128 192 m 1,8,-1
 128 256 l 1,9,-1
 192 256 l 1,10,-1
 192 192 l 1,11,-1
 128 192 l 1,8,-1
EndSplineSet
EndChar

StartChar: underscore
Encoding: 95 95 68
Width: 256
GlyphClass: 2
Flags: W
LayerCount: 2
Fore
SplineSet
0 0 m 1,0,-1
 0 64 l 1,1,-1
 192 64 l 1,2,-1
 192 0 l 1,3,-1
 0 0 l 1,0,-1
EndSplineSet
EndChar

StartChar: grave
Encoding: 96 96 69
Width: 192
GlyphClass: 2
Flags: W
LayerCount: 2
Fore
SplineSet
128 256 m 1,0,-1
 0 384 l 1,1,-1
 64 384 l 1,2,-1
 128 320 l 1,3,-1
 128 256 l 1,0,-1
EndSplineSet
EndChar

StartChar: a
Encoding: 97 97 70
Width: 384
GlyphClass: 2
Flags: W
LayerCount: 2
Fore
SplineSet
64 192 m 1,0,-1
 64 256 l 1,1,-1
 192 256 l 1,2,-1
 192 192 l 1,3,-1
 64 192 l 1,0,-1
0 64 m 1,4,-1
 0 192 l 1,5,-1
 64 192 l 1,6,-1
 64 64 l 1,7,-1
 0 64 l 1,4,-1
192 64 m 1,8,-1
 192 192 l 1,9,-1
 256 192 l 1,10,-1
 256 64 l 1,11,-1
 192 64 l 1,8,-1
64 0 m 1,12,-1
 64 64 l 1,13,-1
 192 64 l 1,14,-1
 192 0 l 1,15,-1
 64 0 l 1,12,-1
256 0 m 1,16,-1
 256 64 l 1,17,-1
 320 64 l 1,18,-1
 320 0 l 1,19,-1
 256 0 l 1,16,-1
EndSplineSet
EndChar

StartChar: b
Encoding: 98 98 71
Width: 320
GlyphClass: 2
Flags: W
LayerCount: 2
Fore
SplineSet
192 64 m 1,0,-1
 192 0 l 1,1,-1
 0 0 l 1,2,-1
 0 320 l 1,3,-1
 64 320 l 1,4,-1
 64 256 l 1,5,-1
 192 256 l 1,6,-1
 192 192 l 1,7,-1
 64 192 l 1,8,-1
 64 64 l 1,9,-1
 192 64 l 1,0,-1
192 64 m 1,10,-1
 192 192 l 1,11,-1
 256 192 l 1,12,-1
 256 64 l 1,13,-1
 192 64 l 1,10,-1
EndSplineSet
EndChar

StartChar: c
Encoding: 99 99 72
Width: 256
GlyphClass: 2
Flags: W
LayerCount: 2
Fore
SplineSet
64 192 m 1,0,-1
 64 256 l 1,1,-1
 192 256 l 1,2,-1
 192 192 l 1,3,-1
 64 192 l 1,0,-1
0 64 m 1,4,-1
 0 192 l 1,5,-1
 64 192 l 1,6,-1
 64 64 l 1,7,-1
 0 64 l 1,4,-1
64 0 m 1,8,-1
 64 64 l 1,9,-1
 192 64 l 1,10,-1
 192 0 l 1,11,-1
 64 0 l 1,8,-1
EndSplineSet
EndChar

StartChar: d
Encoding: 100 100 73
Width: 320
GlyphClass: 2
Flags: W
LayerCount: 2
Fore
SplineSet
0 64 m 1,0,-1
 0 192 l 1,1,-1
 64 192 l 1,2,-1
 64 64 l 1,3,-1
 192 64 l 1,4,-1
 192 192 l 1,5,-1
 64 192 l 1,6,-1
 64 256 l 1,7,-1
 192 256 l 1,8,-1
 192 320 l 1,9,-1
 256 320 l 1,10,-1
 256 0 l 1,11,-1
 64 0 l 1,12,-1
 64 64 l 1,13,-1
 0 64 l 1,0,-1
EndSplineSet
EndChar

StartChar: e
Encoding: 101 101 74
Width: 320
GlyphClass: 2
Flags: W
LayerCount: 2
Fore
SplineSet
64 192 m 1,0,-1
 64 256 l 1,1,-1
 192 256 l 1,2,-1
 192 192 l 1,3,-1
 64 192 l 1,0,-1
64 0 m 1,4,-1
 64 64 l 1,5,-1
 0 64 l 1,6,-1
 0 192 l 1,7,-1
 64 192 l 1,8,-1
 64 128 l 1,9,-1
 192 128 l 1,10,-1
 192 64 l 1,11,-1
 256 64 l 1,12,-1
 256 0 l 1,13,-1
 64 0 l 1,4,-1
192 128 m 1,14,-1
 192 192 l 1,15,-1
 256 192 l 1,16,-1
 256 128 l 1,17,-1
 192 128 l 1,14,-1
EndSplineSet
EndChar

StartChar: f
Encoding: 102 102 75
Width: 256
GlyphClass: 2
Flags: W
LayerCount: 2
Fore
SplineSet
128 256 m 1,0,-1
 128 320 l 1,1,-1
 192 320 l 1,2,-1
 192 256 l 1,3,-1
 128 256 l 1,0,-1
64 0 m 1,4,-1
 64 128 l 1,5,-1
 0 128 l 1,6,-1
 0 192 l 1,7,-1
 64 192 l 1,8,-1
 64 256 l 1,9,-1
 128 256 l 1,10,-1
 128 192 l 1,11,-1
 192 192 l 1,12,-1
 192 128 l 1,13,-1
 128 128 l 1,14,-1
 128 0 l 1,15,-1
 64 0 l 1,4,-1
EndSplineSet
EndChar

StartChar: g
Encoding: 103 103 76
Width: 320
GlyphClass: 2
Flags: W
LayerCount: 2
Fore
SplineSet
64 192 m 1,0,-1
 64 256 l 1,1,-1
 192 256 l 1,2,-1
 192 192 l 1,3,-1
 64 192 l 1,0,-1
0 64 m 1,4,-1
 0 192 l 1,5,-1
 64 192 l 1,6,-1
 64 64 l 1,7,-1
 192 64 l 1,8,-1
 192 192 l 1,9,-1
 256 192 l 1,10,-1
 256 -128 l 1,11,-1
 192 -128 l 1,12,-1
 192 0 l 1,13,-1
 64 0 l 1,14,-1
 64 64 l 1,15,-1
 0 64 l 1,4,-1
0 -128 m 1,16,-1
 0 -64 l 1,17,-1
 64 -64 l 1,18,-1
 64 -128 l 1,19,-1
 0 -128 l 1,16,-1
64 -192 m 1,20,-1
 64 -128 l 1,21,-1
 192 -128 l 1,22,-1
 192 -192 l 1,23,-1
 64 -192 l 1,20,-1
EndSplineSet
EndChar

StartChar: h
Encoding: 104 104 77
Width: 320
GlyphClass: 2
Flags: W
LayerCount: 2
Fore
SplineSet
0 0 m 1,0,-1
 0 320 l 1,1,-1
 64 320 l 1,2,-1
 64 256 l 1,3,-1
 192 256 l 1,4,-1
 192 192 l 1,5,-1
 64 192 l 1,6,-1
 64 0 l 1,7,-1
 0 0 l 1,0,-1
192 0 m 1,8,-1
 192 192 l 1,9,-1
 256 192 l 1,10,-1
 256 0 l 1,11,-1
 192 0 l 1,8,-1
EndSplineSet
EndChar

StartChar: i
Encoding: 105 105 78
Width: 128
GlyphClass: 2
Flags: W
LayerCount: 2
Fore
SplineSet
0 256 m 1,0,-1
 0 320 l 1,1,-1
 64 320 l 1,2,-1
 64 256 l 1,3,-1
 0 256 l 1,0,-1
0 0 m 1,4,-1
 0 192 l 1,5,-1
 64 192 l 1,6,-1
 64 0 l 1,7,-1
 0 0 l 1,4,-1
EndSplineSet
EndChar

StartChar: j
Encoding: 106 106 79
Width: 128
GlyphClass: 2
Flags: W
LayerCount: 2
Fore
SplineSet
0 256 m 1,0,-1
 0 320 l 1,1,-1
 64 320 l 1,2,-1
 64 256 l 1,3,-1
 0 256 l 1,0,-1
0 -64 m 1,4,-1
 0 192 l 1,5,-1
 64 192 l 1,6,-1
 64 -64 l 1,7,-1
 0 -64 l 1,4,-1
-64 -128 m 1,8,-1
 -64 -64 l 1,9,-1
 0 -64 l 1,10,-1
 0 -128 l 1,11,-1
 -64 -128 l 1,8,-1
EndSplineSet
EndChar

StartChar: k
Encoding: 107 107 80
Width: 256
GlyphClass: 2
Flags: W
LayerCount: 2
Fore
SplineSet
0 0 m 1,0,-1
 0 320 l 1,1,-1
 64 320 l 1,2,-1
 64 192 l 1,3,-1
 128 192 l 1,4,-1
 128 128 l 1,5,-1
 64 128 l 1,6,-1
 64 0 l 1,7,-1
 0 0 l 1,0,-1
128 192 m 1,8,-1
 128 320 l 1,9,-1
 192 320 l 1,10,-1
 192 192 l 1,11,-1
 128 192 l 1,8,-1
128 0 m 1,12,-1
 128 128 l 1,13,-1
 192 128 l 1,14,-1
 192 0 l 1,15,-1
 128 0 l 1,12,-1
EndSplineSet
EndChar

StartChar: l
Encoding: 108 108 81
Width: 192
GlyphClass: 2
Flags: W
LayerCount: 2
Fore
SplineSet
0 64 m 1,0,-1
 0 320 l 1,1,-1
 64 320 l 1,2,-1
 64 64 l 1,3,-1
 0 64 l 1,0,-1
64 0 m 1,4,-1
 64 64 l 1,5,-1
 128 64 l 1,6,-1
 128 0 l 1,7,-1
 64 0 l 1,4,-1
EndSplineSet
EndChar

StartChar: m
Encoding: 109 109 82
Width: 384
GlyphClass: 2
Flags: W
LayerCount: 2
Fore
SplineSet
0 0 m 1,0,-1
 0 256 l 1,1,-1
 128 256 l 1,2,-1
 128 192 l 1,3,-1
 64 192 l 1,4,-1
 64 0 l 1,5,-1
 0 0 l 1,0,-1
256 0 m 1,6,-1
 256 192 l 1,7,-1
 192 192 l 1,8,-1
 192 256 l 1,9,-1
 320 256 l 1,10,-1
 320 0 l 1,11,-1
 256 0 l 1,6,-1
128 64 m 1,12,-1
 128 192 l 1,13,-1
 192 192 l 1,14,-1
 192 64 l 1,15,-1
 128 64 l 1,12,-1
EndSplineSet
EndChar

StartChar: n
Encoding: 110 110 83
Width: 320
GlyphClass: 2
Flags: W
LayerCount: 2
Fore
SplineSet
0 0 m 1,0,-1
 0 256 l 1,1,-1
 192 256 l 1,2,-1
 192 192 l 1,3,-1
 64 192 l 1,4,-1
 64 0 l 1,5,-1
 0 0 l 1,0,-1
192 0 m 1,6,-1
 192 192 l 1,7,-1
 256 192 l 1,8,-1
 256 0 l 1,9,-1
 192 0 l 1,6,-1
EndSplineSet
EndChar

StartChar: o
Encoding: 111 111 84
Width: 320
GlyphClass: 2
Flags: W
LayerCount: 2
Fore
SplineSet
64 192 m 1,0,-1
 64 256 l 1,1,-1
 192 256 l 1,2,-1
 192 192 l 1,3,-1
 64 192 l 1,0,-1
0 64 m 1,4,-1
 0 192 l 1,5,-1
 64 192 l 1,6,-1
 64 64 l 1,7,-1
 0 64 l 1,4,-1
192 64 m 1,8,-1
 192 192 l 1,9,-1
 256 192 l 1,10,-1
 256 64 l 1,11,-1
 192 64 l 1,8,-1
64 0 m 1,12,-1
 64 64 l 1,13,-1
 192 64 l 1,14,-1
 192 0 l 1,15,-1
 64 0 l 1,12,-1
EndSplineSet
EndChar

StartChar: p
Encoding: 112 112 85
Width: 320
GlyphClass: 2
Flags: W
LayerCount: 2
Fore
SplineSet
192 64 m 1,0,-1
 192 0 l 1,1,-1
 64 0 l 1,2,-1
 64 -192 l 1,3,-1
 0 -192 l 1,4,-1
 0 256 l 1,5,-1
 192 256 l 1,6,-1
 192 192 l 1,7,-1
 64 192 l 1,8,-1
 64 64 l 1,9,-1
 192 64 l 1,0,-1
192 64 m 1,10,-1
 192 192 l 1,11,-1
 256 192 l 1,12,-1
 256 64 l 1,13,-1
 192 64 l 1,10,-1
EndSplineSet
EndChar

StartChar: q
Encoding: 113 113 86
Width: 384
GlyphClass: 2
Flags: W
LayerCount: 2
Fore
SplineSet
64 192 m 1,0,-1
 64 256 l 1,1,-1
 192 256 l 1,2,-1
 192 192 l 1,3,-1
 64 192 l 1,0,-1
0 64 m 1,4,-1
 0 192 l 1,5,-1
 64 192 l 1,6,-1
 64 64 l 1,7,-1
 192 64 l 1,8,-1
 192 192 l 1,9,-1
 256 192 l 1,10,-1
 256 -64 l 1,11,-1
 320 -64 l 1,12,-1
 320 -128 l 1,13,-1
 256 -128 l 1,14,-1
 256 -192 l 1,15,-1
 192 -192 l 1,16,-1
 192 0 l 1,17,-1
 64 0 l 1,18,-1
 64 64 l 1,19,-1
 0 64 l 1,4,-1
EndSplineSet
EndChar

StartChar: r
Encoding: 114 114 87
Width: 320
GlyphClass: 2
Flags: W
LayerCount: 2
Fore
SplineSet
0 0 m 1,0,-1
 0 256 l 1,1,-1
 64 256 l 1,2,-1
 64 192 l 1,3,-1
 128 192 l 1,4,-1
 128 128 l 1,5,-1
 64 128 l 1,6,-1
 64 0 l 1,7,-1
 0 0 l 1,0,-1
128 192 m 1,8,-1
 128 256 l 1,9,-1
 256 256 l 1,10,-1
 256 192 l 1,11,-1
 128 192 l 1,8,-1
EndSplineSet
EndChar

StartChar: s
Encoding: 115 115 88
Width: 256
GlyphClass: 2
Flags: W
LayerCount: 2
Fore
SplineSet
0 128 m 1,0,-1
 0 192 l 1,1,-1
 64 192 l 1,2,-1
 64 256 l 1,3,-1
 192 256 l 1,4,-1
 192 192 l 1,5,-1
 128 192 l 1,6,-1
 128 128 l 1,7,-1
 0 128 l 1,0,-1
128 64 m 1,8,-1
 128 128 l 1,9,-1
 192 128 l 1,10,-1
 192 64 l 1,11,-1
 128 64 l 1,8,-1
0 0 m 1,12,-1
 0 64 l 1,13,-1
 128 64 l 1,14,-1
 128 0 l 1,15,-1
 0 0 l 1,12,-1
EndSplineSet
EndChar

StartChar: t
Encoding: 116 116 89
Width: 256
GlyphClass: 2
Flags: W
LayerCount: 2
Fore
SplineSet
64 64 m 1,0,-1
 64 192 l 1,1,-1
 0 192 l 1,2,-1
 0 256 l 1,3,-1
 64 256 l 1,4,-1
 64 320 l 1,5,-1
 128 320 l 1,6,-1
 128 256 l 1,7,-1
 192 256 l 1,8,-1
 192 192 l 1,9,-1
 128 192 l 1,10,-1
 128 64 l 1,11,-1
 64 64 l 1,0,-1
128 0 m 1,12,-1
 128 64 l 1,13,-1
 192 64 l 1,14,-1
 192 0 l 1,15,-1
 128 0 l 1,12,-1
EndSplineSet
EndChar

StartChar: u
Encoding: 117 117 90
Width: 384
GlyphClass: 2
Flags: W
LayerCount: 2
Fore
SplineSet
0 64 m 1,0,-1
 0 256 l 1,1,-1
 64 256 l 1,2,-1
 64 64 l 1,3,-1
 0 64 l 1,0,-1
192 64 m 1,4,-1
 192 256 l 1,5,-1
 256 256 l 1,6,-1
 256 64 l 1,7,-1
 192 64 l 1,4,-1
64 0 m 1,8,-1
 64 64 l 1,9,-1
 192 64 l 1,10,-1
 192 0 l 1,11,-1
 64 0 l 1,8,-1
256 0 m 1,12,-1
 256 64 l 1,13,-1
 320 64 l 1,14,-1
 320 0 l 1,15,-1
 256 0 l 1,12,-1
EndSplineSet
EndChar

StartChar: v
Encoding: 118 118 91
Width: 256
GlyphClass: 2
Flags: W
LayerCount: 2
Fore
SplineSet
0 64 m 1,0,-1
 0 256 l 1,1,-1
 64 256 l 1,2,-1
 64 64 l 1,3,-1
 0 64 l 1,0,-1
128 64 m 1,4,-1
 128 256 l 1,5,-1
 192 256 l 1,6,-1
 192 64 l 1,7,-1
 128 64 l 1,4,-1
64 0 m 1,8,-1
 64 64 l 1,9,-1
 128 64 l 1,10,-1
 128 0 l 1,11,-1
 64 0 l 1,8,-1
EndSplineSet
EndChar

StartChar: w
Encoding: 119 119 92
Width: 384
GlyphClass: 2
Flags: W
LayerCount: 2
Fore
SplineSet
0 64 m 1,0,-1
 0 256 l 1,1,-1
 64 256 l 1,2,-1
 64 64 l 1,3,-1
 0 64 l 1,0,-1
256 64 m 1,4,-1
 256 256 l 1,5,-1
 320 256 l 1,6,-1
 320 64 l 1,7,-1
 256 64 l 1,4,-1
128 64 m 1,8,-1
 128 192 l 1,9,-1
 192 192 l 1,10,-1
 192 64 l 1,11,-1
 128 64 l 1,8,-1
64 0 m 1,12,-1
 64 64 l 1,13,-1
 128 64 l 1,14,-1
 128 0 l 1,15,-1
 64 0 l 1,12,-1
192 0 m 1,16,-1
 192 64 l 1,17,-1
 256 64 l 1,18,-1
 256 0 l 1,19,-1
 192 0 l 1,16,-1
EndSplineSet
EndChar

StartChar: x
Encoding: 120 120 93
Width: 256
GlyphClass: 2
Flags: W
LayerCount: 2
Fore
SplineSet
0 192 m 1,0,-1
 0 256 l 1,1,-1
 64 256 l 1,2,-1
 64 192 l 1,3,-1
 0 192 l 1,0,-1
128 192 m 1,4,-1
 128 256 l 1,5,-1
 192 256 l 1,6,-1
 192 192 l 1,7,-1
 128 192 l 1,4,-1
64 128 m 1,8,-1
 64 192 l 1,9,-1
 128 192 l 1,10,-1
 128 128 l 1,11,-1
 64 128 l 1,8,-1
0 0 m 1,12,-1
 0 128 l 1,13,-1
 64 128 l 1,14,-1
 64 0 l 1,15,-1
 0 0 l 1,12,-1
128 0 m 1,16,-1
 128 128 l 1,17,-1
 192 128 l 1,18,-1
 192 0 l 1,19,-1
 128 0 l 1,16,-1
EndSplineSet
EndChar

StartChar: y
Encoding: 121 121 94
Width: 320
GlyphClass: 2
Flags: W
LayerCount: 2
Fore
SplineSet
0 64 m 1,0,-1
 0 256 l 1,1,-1
 64 256 l 1,2,-1
 64 64 l 1,3,-1
 192 64 l 1,4,-1
 192 256 l 1,5,-1
 256 256 l 1,6,-1
 256 -128 l 1,7,-1
 192 -128 l 1,8,-1
 192 0 l 1,9,-1
 64 0 l 1,10,-1
 64 64 l 1,11,-1
 0 64 l 1,0,-1
0 -128 m 1,12,-1
 0 -64 l 1,13,-1
 64 -64 l 1,14,-1
 64 -128 l 1,15,-1
 0 -128 l 1,12,-1
64 -192 m 1,16,-1
 64 -128 l 1,17,-1
 192 -128 l 1,18,-1
 192 -192 l 1,19,-1
 64 -192 l 1,16,-1
EndSplineSet
EndChar

StartChar: z
Encoding: 122 122 95
Width: 320
GlyphClass: 2
Flags: W
LayerCount: 2
Fore
SplineSet
128 128 m 1,0,-1
 128 192 l 1,1,-1
 0 192 l 1,2,-1
 0 256 l 1,3,-1
 256 256 l 1,4,-1
 256 192 l 1,5,-1
 192 192 l 1,6,-1
 192 128 l 1,7,-1
 128 128 l 1,0,-1
0 0 m 1,8,-1
 0 64 l 1,9,-1
 64 64 l 1,10,-1
 64 128 l 1,11,-1
 128 128 l 1,12,-1
 128 64 l 1,13,-1
 256 64 l 1,14,-1
 256 0 l 1,15,-1
 0 0 l 1,8,-1
EndSplineSet
EndChar

StartChar: braceleft
Encoding: 123 123 96
Width: 256
GlyphClass: 2
Flags: W
LayerCount: 2
Fore
SplineSet
128 384 m 1,0,-1
 128 448 l 1,1,-1
 192 448 l 1,2,-1
 192 384 l 1,3,-1
 128 384 l 1,0,-1
64 256 m 1,4,-1
 64 384 l 1,5,-1
 128 384 l 1,6,-1
 128 256 l 1,7,-1
 64 256 l 1,4,-1
0 192 m 1,8,-1
 0 256 l 1,9,-1
 64 256 l 1,10,-1
 64 192 l 1,11,-1
 0 192 l 1,8,-1
64 64 m 1,12,-1
 64 192 l 1,13,-1
 128 192 l 1,14,-1
 128 64 l 1,15,-1
 64 64 l 1,12,-1
128 0 m 1,16,-1
 128 64 l 1,17,-1
 192 64 l 1,18,-1
 192 0 l 1,19,-1
 128 0 l 1,16,-1
EndSplineSet
EndChar

StartChar: bar
Encoding: 124 124 97
Width: 192
GlyphClass: 2
Flags: W
LayerCount: 2
Fore
SplineSet
64 0 m 1,0,-1
 64 448 l 1,1,-1
 128 448 l 1,2,-1
 128 0 l 1,3,-1
 64 0 l 1,0,-1
EndSplineSet
EndChar

StartChar: braceright
Encoding: 125 125 98
Width: 256
GlyphClass: 2
Flags: W
LayerCount: 2
Fore
SplineSet
0 384 m 1,0,-1
 0 448 l 1,1,-1
 64 448 l 1,2,-1
 64 384 l 1,3,-1
 0 384 l 1,0,-1
64 256 m 1,4,-1
 64 384 l 1,5,-1
 128 384 l 1,6,-1
 128 256 l 1,7,-1
 64 256 l 1,4,-1
128 192 m 1,8,-1
 128 256 l 1,9,-1
 192 256 l 1,10,-1
 192 192 l 1,11,-1
 128 192 l 1,8,-1
64 64 m 1,12,-1
 64 192 l 1,13,-1
 128 192 l 1,14,-1
 128 64 l 1,15,-1
 64 64 l 1,12,-1
0 0 m 1,16,-1
 0 64 l 1,17,-1
 64 64 l 1,18,-1
 64 0 l 1,19,-1
 0 0 l 1,16,-1
EndSplineSet
EndChar

StartChar: asciitilde
Encoding: 126 126 99
Width: 384
GlyphClass: 2
Flags: W
LayerCount: 2
Fore
SplineSet
64 256 m 5,0,-1
 64 320 l 5,1,-1
 128 320 l 5,2,-1
 128 256 l 5,3,-1
 64 256 l 5,0,-1
0 192 m 5,4,-1
 0 256 l 5,5,-1
 64 256 l 5,6,-1
 64 192 l 5,7,-1
 0 192 l 5,4,-1
128 192 m 5,8,-1
 128 256 l 5,9,-1
 192 256 l 5,10,-1
 192 192 l 5,11,-1
 128 192 l 5,8,-1
256 192 m 5,12,-1
 256 256 l 5,13,-1
 320 256 l 5,14,-1
 320 192 l 5,15,-1
 256 192 l 5,12,-1
192 128 m 5,16,-1
 192 192 l 5,17,-1
 256 192 l 5,18,-1
 256 128 l 5,19,-1
 192 128 l 5,16,-1
EndSplineSet
EndChar

StartChar: sterling
Encoding: 163 163 100
Width: 320
GlyphClass: 2
Flags: W
LayerCount: 2
Fore
SplineSet
128 256 m 1,0,-1
 128 320 l 1,1,-1
 256 320 l 1,2,-1
 256 256 l 1,3,-1
 128 256 l 1,0,-1
0 0 m 1,4,-1
 0 64 l 1,5,-1
 64 64 l 1,6,-1
 64 128 l 1,7,-1
 0 128 l 1,8,-1
 0 192 l 1,9,-1
 64 192 l 1,10,-1
 64 256 l 1,11,-1
 128 256 l 1,12,-1
 128 192 l 1,13,-1
 192 192 l 1,14,-1
 192 128 l 1,15,-1
 128 128 l 1,16,-1
 128 64 l 1,17,-1
 256 64 l 1,18,-1
 256 0 l 1,19,-1
 0 0 l 1,4,-1
EndSplineSet
EndChar

StartChar: multiply
Encoding: 215 215 101
Width: 384
GlyphClass: 2
Flags: W
LayerCount: 2
Fore
SplineSet
0 256 m 1,0,-1
 0 320 l 1,1,-1
 64 320 l 1,2,-1
 64 256 l 1,3,-1
 0 256 l 1,0,-1
256 256 m 1,4,-1
 256 320 l 1,5,-1
 320 320 l 1,6,-1
 320 256 l 1,7,-1
 256 256 l 1,4,-1
64 192 m 1,8,-1
 64 256 l 1,9,-1
 128 256 l 1,10,-1
 128 192 l 1,11,-1
 64 192 l 1,8,-1
192 192 m 1,12,-1
 192 256 l 1,13,-1
 256 256 l 1,14,-1
 256 192 l 1,15,-1
 192 192 l 1,12,-1
128 128 m 1,16,-1
 128 192 l 1,17,-1
 192 192 l 1,18,-1
 192 128 l 1,19,-1
 128 128 l 1,16,-1
64 64 m 1,20,-1
 64 128 l 1,21,-1
 128 128 l 1,22,-1
 128 64 l 1,23,-1
 64 64 l 1,20,-1
192 64 m 1,24,-1
 192 128 l 1,25,-1
 256 128 l 1,26,-1
 256 64 l 1,27,-1
 192 64 l 1,24,-1
0 0 m 1,28,-1
 0 64 l 1,29,-1
 64 64 l 1,30,-1
 64 0 l 1,31,-1
 0 0 l 1,28,-1
256 0 m 1,32,-1
 256 64 l 1,33,-1
 320 64 l 1,34,-1
 320 0 l 1,35,-1
 256 0 l 1,32,-1
EndSplineSet
EndChar

StartChar: divide
Encoding: 247 247 102
Width: 384
GlyphClass: 2
Flags: W
LayerCount: 2
Fore
SplineSet
128 256 m 1,0,-1
 128 320 l 1,1,-1
 192 320 l 1,2,-1
 192 256 l 1,3,-1
 128 256 l 1,0,-1
0 128 m 1,4,-1
 0 192 l 1,5,-1
 320 192 l 1,6,-1
 320 128 l 1,7,-1
 0 128 l 1,4,-1
128 0 m 1,8,-1
 128 64 l 1,9,-1
 192 64 l 1,10,-1
 192 0 l 1,11,-1
 128 0 l 1,8,-1
EndSplineSet
EndChar

StartChar: quoteleft
Encoding: 8216 8216 103
Width: 128
GlyphClass: 2
Flags: W
LayerCount: 2
Fore
SplineSet
0 256 m 1,0,-1
 0 320 l 1,1,-1
 64 384 l 1,2,-1
 64 256 l 1,3,-1
 0 256 l 1,0,-1
EndSplineSet
EndChar

StartChar: quoteright
Encoding: 8217 8217 104
Width: 128
GlyphClass: 2
Flags: W
LayerCount: 2
Fore
SplineSet
0 256 m 1,0,-1
 0 384 l 1,1,-1
 64 384 l 1,2,-1
 64 320 l 1,3,-1
 0 256 l 1,0,-1
EndSplineSet
EndChar

StartChar: quotedblleft
Encoding: 8220 8220 105
Width: 256
GlyphClass: 2
Flags: W
LayerCount: 2
Fore
SplineSet
64 256 m 1,0,-1
 0 320 l 1,1,-1
 0 384 l 1,2,-1
 64 384 l 1,3,-1
 64 256 l 1,0,-1
192 256 m 1,4,-1
 128 320 l 1,5,-1
 128 384 l 1,6,-1
 192 384 l 1,7,-1
 192 256 l 1,4,-1
EndSplineSet
EndChar

StartChar: quotedblright
Encoding: 8221 8221 106
Width: 256
GlyphClass: 2
Flags: W
LayerCount: 2
Fore
SplineSet
0 256 m 1,0,-1
 0 384 l 1,1,-1
 64 384 l 1,2,-1
 64 320 l 1,3,-1
 0 256 l 1,0,-1
128 256 m 1,4,-1
 128 384 l 1,5,-1
 192 384 l 1,6,-1
 192 320 l 1,7,-1
 128 256 l 1,4,-1
EndSplineSet
EndChar

StartChar: Aacute
Encoding: 193 193 107
Width: 320
Flags: W
LayerCount: 2
Fore
SplineSet
159 416 m 5,0,-1
 94 352 l 5,1,-1
 158 352 l 5,2,-1
 222 416 l 5,3,-1
 159 416 l 5,0,-1
64 256 m 1,4,-1
 64 320 l 1,5,-1
 192 320 l 1,6,-1
 192 256 l 1,7,-1
 64 256 l 1,4,-1
0 0 m 1,8,-1
 0 256 l 1,9,-1
 64 256 l 1,10,-1
 64 128 l 1,11,-1
 192 128 l 1,12,-1
 192 256 l 1,13,-1
 256 256 l 1,14,-1
 256 0 l 1,15,-1
 192 0 l 1,16,-1
 192 64 l 1,17,-1
 64 64 l 1,18,-1
 64 0 l 1,19,-1
 0 0 l 1,8,-1
EndSplineSet
EndChar

StartChar: Eacute
Encoding: 201 201 108
Width: 256
Flags: W
LayerCount: 2
Fore
SplineSet
106 416 m 5,0,-1
 41 352 l 5,1,-1
 105 352 l 5,2,-1
 169 416 l 5,3,-1
 106 416 l 5,0,-1
0 0 m 1,4,-1
 0 320 l 1,5,-1
 192 320 l 1,6,-1
 192 256 l 1,7,-1
 64 256 l 1,8,-1
 64 192 l 1,9,-1
 128 192 l 1,10,-1
 128 128 l 1,11,-1
 64 128 l 1,12,-1
 64 64 l 1,13,-1
 192 64 l 1,14,-1
 192 0 l 1,15,-1
 0 0 l 1,4,-1
EndSplineSet
EndChar

StartChar: Iacute
Encoding: 205 205 109
Width: 256
Flags: W
LayerCount: 2
Fore
SplineSet
126 416 m 5,0,-1
 61 352 l 5,1,-1
 125 352 l 5,2,-1
 189 416 l 5,3,-1
 126 416 l 5,0,-1
0 0 m 1,4,-1
 0 64 l 1,5,-1
 64 64 l 1,6,-1
 64 256 l 1,7,-1
 0 256 l 1,8,-1
 0 320 l 1,9,-1
 192 320 l 1,10,-1
 192 256 l 1,11,-1
 128 256 l 1,12,-1
 128 64 l 1,13,-1
 192 64 l 1,14,-1
 192 0 l 1,15,-1
 0 0 l 1,4,-1
EndSplineSet
EndChar

StartChar: Oacute
Encoding: 211 211 110
Width: 320
Flags: W
LayerCount: 2
Fore
SplineSet
155 416 m 5,0,-1
 90 352 l 5,1,-1
 154 352 l 5,2,-1
 218 416 l 5,3,-1
 155 416 l 5,0,-1
64 256 m 1,4,-1
 64 320 l 1,5,-1
 192 320 l 1,6,-1
 192 256 l 1,7,-1
 64 256 l 1,4,-1
0 64 m 1,8,-1
 0 256 l 1,9,-1
 64 256 l 1,10,-1
 64 64 l 1,11,-1
 0 64 l 1,8,-1
192 64 m 1,12,-1
 192 256 l 1,13,-1
 256 256 l 1,14,-1
 256 64 l 1,15,-1
 192 64 l 1,12,-1
64 0 m 1,16,-1
 64 64 l 1,17,-1
 192 64 l 1,18,-1
 192 0 l 1,19,-1
 64 0 l 1,16,-1
EndSplineSet
EndChar

StartChar: Uacute
Encoding: 218 218 111
Width: 320
Flags: W
LayerCount: 2
Fore
SplineSet
157 416 m 5,0,-1
 92 352 l 5,1,-1
 156 352 l 5,2,-1
 220 416 l 5,3,-1
 157 416 l 5,0,-1
0 64 m 1,4,-1
 0 320 l 1,5,-1
 64 320 l 1,6,-1
 64 64 l 1,7,-1
 0 64 l 1,4,-1
192 64 m 1,8,-1
 192 320 l 1,9,-1
 256 320 l 1,10,-1
 256 64 l 1,11,-1
 192 64 l 1,8,-1
64 0 m 1,12,-1
 64 64 l 1,13,-1
 192 64 l 1,14,-1
 192 0 l 1,15,-1
 64 0 l 1,12,-1
EndSplineSet
EndChar

StartChar: aacute
Encoding: 225 225 112
Width: 384
Flags: W
LayerCount: 2
Fore
SplineSet
159 348 m 5,0,-1
 94 284 l 5,1,-1
 158 284 l 5,2,-1
 222 348 l 5,3,-1
 159 348 l 5,0,-1
64 192 m 1,4,-1
 64 256 l 1,5,-1
 192 256 l 1,6,-1
 192 192 l 1,7,-1
 64 192 l 1,4,-1
0 64 m 1,8,-1
 0 192 l 1,9,-1
 64 192 l 1,10,-1
 64 64 l 1,11,-1
 0 64 l 1,8,-1
192 64 m 1,12,-1
 192 192 l 1,13,-1
 256 192 l 1,14,-1
 256 64 l 1,15,-1
 192 64 l 1,12,-1
64 0 m 1,16,-1
 64 64 l 1,17,-1
 192 64 l 1,18,-1
 192 0 l 1,19,-1
 64 0 l 1,16,-1
256 0 m 1,20,-1
 256 64 l 1,21,-1
 320 64 l 1,22,-1
 320 0 l 1,23,-1
 256 0 l 1,20,-1
EndSplineSet
EndChar

StartChar: Ntilde
Encoding: 209 209 113
Width: 320
Flags: W
LayerCount: 2
Fore
SplineSet
49.2548828125 374.990234375 m 1,0,-1
 49.2548828125 415.981445312 l 1,1,-1
 98.126953125 415.981445312 l 1,2,-1
 98.126953125 374.990234375 l 1,3,-1
 49.2548828125 374.990234375 l 1,0,-1
0.3828125 333.998046875 m 1,4,-1
 0.3828125 374.990234375 l 1,5,-1
 49.2548828125 374.990234375 l 1,6,-1
 49.2548828125 333.998046875 l 1,7,-1
 0.3828125 333.998046875 l 1,4,-1
98.126953125 333.998046875 m 1,8,-1
 98.126953125 374.990234375 l 1,9,-1
 146.999023438 374.990234375 l 1,10,-1
 146.999023438 333.998046875 l 1,11,-1
 98.126953125 333.998046875 l 1,8,-1
195.870117188 333.998046875 m 1,12,-1
 195.870117188 374.990234375 l 1,13,-1
 244.743164062 374.990234375 l 1,14,-1
 244.743164062 333.998046875 l 1,15,-1
 195.870117188 333.998046875 l 1,12,-1
146.999023438 293.005859375 m 1,16,-1
 146.999023438 333.998046875 l 1,17,-1
 195.870117188 333.998046875 l 1,18,-1
 195.870117188 293.005859375 l 1,19,-1
 146.999023438 293.005859375 l 1,16,-1
0 0 m 1,20,-1
 0 291 l 1,21,-1
 64 291 l 1,22,-1
 64 227 l 1,23,-1
 128 227 l 1,24,-1
 128 163 l 1,25,-1
 64 163 l 1,26,-1
 64 0 l 1,27,-1
 0 0 l 1,20,-1
192 0 m 1,28,-1
 192 99 l 1,29,-1
 128 99 l 1,30,-1
 128 163 l 1,31,-1
 192 163 l 1,32,-1
 192 291 l 1,33,-1
 256 291 l 1,34,-1
 256 0 l 1,35,-1
 192 0 l 1,28,-1
EndSplineSet
EndChar

StartChar: eacute
Encoding: 233 233 114
Width: 320
Flags: W
LayerCount: 2
Fore
SplineSet
159 348 m 5,0,-1
 94 284 l 5,1,-1
 158 284 l 5,2,-1
 222 348 l 5,3,-1
 159 348 l 5,0,-1
64 192 m 1,4,-1
 64 256 l 1,5,-1
 192 256 l 1,6,-1
 192 192 l 1,7,-1
 64 192 l 1,4,-1
64 0 m 1,8,-1
 64 64 l 1,9,-1
 0 64 l 1,10,-1
 0 192 l 1,11,-1
 64 192 l 1,12,-1
 64 128 l 1,13,-1
 192 128 l 1,14,-1
 192 64 l 1,15,-1
 256 64 l 1,16,-1
 256 0 l 1,17,-1
 64 0 l 1,8,-1
192 128 m 1,18,-1
 192 192 l 1,19,-1
 256 192 l 1,20,-1
 256 128 l 1,21,-1
 192 128 l 1,18,-1
EndSplineSet
EndChar

StartChar: iacute
Encoding: 237 237 115
Width: 128
Flags: W
LayerCount: 2
Fore
SplineSet
64 320 m 5,0,-1
 -1 256 l 5,1,-1
 63 256 l 5,2,-1
 127 320 l 5,3,-1
 64 320 l 5,0,-1
0 0 m 1,4,-1
 0 192 l 1,5,-1
 64 192 l 1,6,-1
 64 0 l 1,7,-1
 0 0 l 1,4,-1
EndSplineSet
EndChar

StartChar: oacute
Encoding: 243 243 116
Width: 320
Flags: W
LayerCount: 2
Fore
SplineSet
159 348 m 5,0,-1
 94 284 l 5,1,-1
 158 284 l 5,2,-1
 222 348 l 5,3,-1
 159 348 l 5,0,-1
64 192 m 1,4,-1
 64 256 l 1,5,-1
 192 256 l 1,6,-1
 192 192 l 1,7,-1
 64 192 l 1,4,-1
0 64 m 1,8,-1
 0 192 l 1,9,-1
 64 192 l 1,10,-1
 64 64 l 1,11,-1
 0 64 l 1,8,-1
192 64 m 1,12,-1
 192 192 l 1,13,-1
 256 192 l 1,14,-1
 256 64 l 1,15,-1
 192 64 l 1,12,-1
64 0 m 1,16,-1
 64 64 l 1,17,-1
 192 64 l 1,18,-1
 192 0 l 1,19,-1
 64 0 l 1,16,-1
EndSplineSet
EndChar

StartChar: uacute
Encoding: 250 250 117
Width: 384
Flags: W
LayerCount: 2
Fore
SplineSet
159 348 m 5,0,-1
 94 284 l 5,1,-1
 158 284 l 5,2,-1
 222 348 l 5,3,-1
 159 348 l 5,0,-1
0 64 m 1,4,-1
 0 256 l 1,5,-1
 64 256 l 1,6,-1
 64 64 l 1,7,-1
 0 64 l 1,4,-1
192 64 m 1,8,-1
 192 256 l 1,9,-1
 256 256 l 1,10,-1
 256 64 l 1,11,-1
 192 64 l 1,8,-1
64 0 m 1,12,-1
 64 64 l 1,13,-1
 192 64 l 1,14,-1
 192 0 l 1,15,-1
 64 0 l 1,12,-1
256 0 m 1,16,-1
 256 64 l 1,17,-1
 320 64 l 1,18,-1
 320 0 l 1,19,-1
 256 0 l 1,16,-1
EndSplineSet
EndChar

StartChar: udieresis
Encoding: 252 252 118
Width: 384
Flags: W
LayerCount: 2
Fore
SplineSet
100 359 m 5,0,-1
 36 359 l 5,1,-1
 36 295 l 5,2,-1
 100 295 l 5,3,-1
 100 359 l 5,0,-1
228 359 m 5,4,-1
 164 359 l 5,5,-1
 164 295 l 5,6,-1
 228 295 l 5,7,-1
 228 359 l 5,4,-1
0 64 m 1,8,-1
 0 256 l 1,9,-1
 64 256 l 1,10,-1
 64 64 l 1,11,-1
 0 64 l 1,8,-1
192 64 m 1,12,-1
 192 256 l 1,13,-1
 256 256 l 1,14,-1
 256 64 l 1,15,-1
 192 64 l 1,12,-1
64 0 m 1,16,-1
 64 64 l 1,17,-1
 192 64 l 1,18,-1
 192 0 l 1,19,-1
 64 0 l 1,16,-1
256 0 m 1,20,-1
 256 64 l 1,21,-1
 320 64 l 1,22,-1
 320 0 l 1,23,-1
 256 0 l 1,20,-1
EndSplineSet
EndChar

StartChar: ntilde
Encoding: 241 241 119
Width: 320
Flags: W
LayerCount: 2
Fore
SplineSet
65.2548828125 373.990234375 m 5,0,-1
 65.2548828125 414.981445312 l 5,1,-1
 114.126953125 414.981445312 l 5,2,-1
 114.126953125 373.990234375 l 5,3,-1
 65.2548828125 373.990234375 l 5,0,-1
16.3828125 332.998046875 m 5,4,-1
 16.3828125 373.990234375 l 5,5,-1
 65.2548828125 373.990234375 l 5,6,-1
 65.2548828125 332.998046875 l 5,7,-1
 16.3828125 332.998046875 l 5,4,-1
114.126953125 332.998046875 m 5,8,-1
 114.126953125 373.990234375 l 5,9,-1
 162.999023438 373.990234375 l 5,10,-1
 162.999023438 332.998046875 l 5,11,-1
 114.126953125 332.998046875 l 5,8,-1
211.870117188 332.998046875 m 5,12,-1
 211.870117188 373.990234375 l 5,13,-1
 260.743164062 373.990234375 l 5,14,-1
 260.743164062 332.998046875 l 5,15,-1
 211.870117188 332.998046875 l 5,12,-1
162.999023438 292.005859375 m 5,16,-1
 162.999023438 332.998046875 l 5,17,-1
 211.870117188 332.998046875 l 5,18,-1
 211.870117188 292.005859375 l 5,19,-1
 162.999023438 292.005859375 l 5,16,-1
0 0 m 1,20,-1
 0 256 l 1,21,-1
 192 256 l 1,22,-1
 192 192 l 1,23,-1
 64 192 l 1,24,-1
 64 0 l 1,25,-1
 0 0 l 1,20,-1
192 0 m 1,26,-1
 192 192 l 1,27,-1
 256 192 l 1,28,-1
 256 0 l 1,29,-1
 192 0 l 1,26,-1
EndSplineSet
EndChar

StartChar: questiondown
Encoding: 191 191 120
Width: 320
Flags: W
LayerCount: 2
Fore
SplineSet
192 64 m 5,0,-1
 192 0 l 5,1,-1
 64 0 l 5,2,-1
 64 64 l 5,3,-1
 192 64 l 5,0,-1
256 128 m 5,4,-1
 256 64 l 5,5,-1
 192 64 l 5,6,-1
 192 128 l 5,7,-1
 256 128 l 5,4,-1
64 128 m 5,8,-1
 64 64 l 5,9,-1
 0 64 l 5,10,-1
 0 128 l 5,11,-1
 64 128 l 5,8,-1
128 192 m 5,12,-1
 128 128 l 5,13,-1
 64 128 l 5,14,-1
 64 192 l 5,15,-1
 128 192 l 5,12,-1
192 256 m 5,16,-1
 192 192 l 5,17,-1
 128 192 l 5,18,-1
 128 256 l 5,19,-1
 192 256 l 5,16,-1
192 384 m 5,20,-1
 192 320 l 5,21,-1
 128 320 l 5,22,-1
 128 384 l 5,23,-1
 192 384 l 5,20,-1
EndSplineSet
EndChar

StartChar: exclamdown
Encoding: 161 161 121
Width: 128
Flags: W
LayerCount: 2
Fore
SplineSet
0 257 m 5,0,-1
 0 1 l 5,1,-1
 64 1 l 5,2,-1
 64 257 l 5,3,-1
 0 257 l 5,0,-1
0 385 m 5,4,-1
 0 321 l 5,5,-1
 64 321 l 5,6,-1
 64 385 l 5,7,-1
 0 385 l 5,4,-1
EndSplineSet
EndChar
